<svg class="main-svg" xmlns="http://www.w3.org/2000/svg" xmlns:xlink="http://www.w3.org/1999/xlink" width="900" height="320" style="" viewBox="0 0 900 320"><rect x="0" y="0" width="900" height="320" style="fill: rgb(255, 255, 255); fill-opacity: 1;"/><defs id="defs-a6d652"><g class="clips"><clipPath id="clipa6d652xyplot" class="plotclip"><rect width="900" height="270"/></clipPath><clipPath class="axesclip" id="clipa6d652x"><rect x="0" y="0" width="900" height="320"/></clipPath><clipPath class="axesclip" id="clipa6d652y"><rect x="0" y="50" width="900" height="270"/></clipPath><clipPath class="axesclip" id="clipa6d652xy"><rect x="0" y="50" width="900" height="270"/></clipPath></g><g class="gradients"/><g class="patterns"/></defs><g class="bglayer"/><g class="layer-below"><g class="imagelayer"/><g class="shapelayer"/></g><g class="cartesianlayer"><g class="subplot xy"><g class="layer-subplot"><g class="shapelayer"/><g class="imagelayer"/></g><g class="minor-gridlayer"><g class="x"/><g class="y"/></g><g class="gridlayer"><g class="x"/><g class="y"/></g><g class="zerolinelayer"/><path class="xlines-below"/><path class="ylines-below"/><g class="overlines-below"/><g class="xaxislayer-below"/><g class="yaxislayer-below"/><g class="overaxes-below"/><g class="plot" transform="translate(0,50)" clip-path="url(#clipa6d652xyplot)"><g class="scatterlayer mlayer"><g class="trace scatter trace7792dc" style="stroke-miterlimit: 2; opacity: 1;"><g class="fills"/><g class="errorbars"/><g class="lines"/><g class="points"><path class="point" transform="translate(116.15,135)" d="M63.64,0A63.64,63.64 0 1,1 0,-63.64A63.64,63.64 0 0,1 63.64,0Z" style="opacity: 0.7; stroke-width: 1px; fill: rgb(253, 195, 40); fill-opacity: 1; stroke: rgb(255, 255, 255); stroke-opacity: 1;"/></g><g class="text"><g class="textpoint" transform="translate(0,-114.7495128834866)"><text x="116.15" y="135" text-anchor="middle" style="font-family: 'Open Sans', verdana, arial, sans-serif; font-size: 12px; fill: rgb(42, 63, 95); fill-opacity: 1; white-space: pre;"><tspan class="line" dy="0em" x="116.15" y="135">Numbers</tspan><tspan class="line" dy="1.3em" x="116.15" y="135">43525</tspan><tspan class="line" dy="2.6em" x="116.15" y="135">84.67%</tspan></text></g></g></g><g class="trace scatter trace4e8edd" style="stroke-miterlimit: 2; opacity: 1;"><g class="fills"/><g class="errorbars"/><g class="lines"/><g class="points"><path class="point" transform="translate(238.6,135)" d="M20.67,0A20.67,20.67 0 1,1 0,-20.67A20.67,20.67 0 0,1 20.67,0Z" style="opacity: 0.7; stroke-width: 1px; fill: rgb(248, 148, 65); fill-opacity: 1; stroke: rgb(255, 255, 255); stroke-opacity: 1;"/></g><g class="text"><g class="textpoint" transform="translate(0,-61.03579209856237)"><text x="238.6" y="135" text-anchor="middle" style="font-family: 'Open Sans', verdana, arial, sans-serif; font-size: 12px; fill: rgb(42, 63, 95); fill-opacity: 1; white-space: pre;"><tspan class="line" dy="0em" x="238.6" y="135">Struct</tspan><tspan class="line" dy="1.3em" x="238.6" y="135">4591</tspan><tspan class="line" dy="2.6em" x="238.6" y="135">8.93%</tspan></text></g></g></g><g class="trace scatter trace8d2e40" style="stroke-miterlimit: 2; opacity: 1;"><g class="fills"/><g class="errorbars"/><g class="lines"/><g class="points"><path class="point" transform="translate(361.05,135)" d="M13.24,0A13.24,13.24 0 1,1 0,-13.24A13.24,13.24 0 0,1 13.24,0Z" style="opacity: 0.7; stroke-width: 1px; fill: rgb(229, 107, 93); fill-opacity: 1; stroke: rgb(255, 255, 255); stroke-opacity: 1;"/></g><g class="text"><g class="textpoint" transform="translate(0,-51.75040340771397)"><text x="361.05" y="135" text-anchor="middle" style="font-family: 'Open Sans', verdana, arial, sans-serif; font-size: 12px; fill: rgb(42, 63, 95); fill-opacity: 1; white-space: pre;"><tspan class="line" dy="0em" x="361.05" y="135">Array</tspan><tspan class="line" dy="1.3em" x="361.05" y="135">1884</tspan><tspan class="line" dy="2.6em" x="361.05" y="135">3.67%</tspan></text></g></g></g><g class="trace scatter trace3cfa37" style="stroke-miterlimit: 2; opacity: 1;"><g class="fills"/><g class="errorbars"/><g class="lines"/><g class="points"><path class="point" transform="translate(483.49,135)" d="M7.35,0A7.35,7.35 0 1,1 0,-7.35A7.35,7.35 0 0,1 7.35,0Z" style="opacity: 0.7; stroke-width: 1px; fill: rgb(203, 70, 121); fill-opacity: 1; stroke: rgb(255, 255, 255); stroke-opacity: 1;"/></g><g class="text"><g class="textpoint" transform="translate(0,-44.39086106158817)"><text x="483.49" y="135" text-anchor="middle" style="font-family: 'Open Sans', verdana, arial, sans-serif; font-size: 12px; fill: rgb(42, 63, 95); fill-opacity: 1; white-space: pre;"><tspan class="line" dy="0em" x="483.49" y="135">Enum</tspan><tspan class="line" dy="1.3em" x="483.49" y="135">581</tspan><tspan class="line" dy="2.6em" x="483.49" y="135">1.13%</tspan></text></g></g></g><g class="trace scatter traceb131eb" style="stroke-miterlimit: 2; opacity: 1;"><g class="fills"/><g class="errorbars"/><g class="lines"/><g class="points"><path class="point" transform="translate(605.94,135)" d="M5.88,0A5.88,5.88 0 1,1 0,-5.88A5.88,5.88 0 0,1 5.88,0Z" style="opacity: 0.7; stroke-width: 1px; fill: rgb(168, 34, 150); fill-opacity: 1; stroke: rgb(255, 255, 255); stroke-opacity: 1;"/></g><g class="text"><g class="textpoint" transform="translate(0,-42.544379158709134)"><text x="605.94" y="135" text-anchor="middle" style="font-family: 'Open Sans', verdana, arial, sans-serif; font-size: 12px; fill: rgb(42, 63, 95); fill-opacity: 1; white-space: pre;"><tspan class="line" dy="0em" x="605.94" y="135">Dynamic vectors</tspan><tspan class="line" dy="1.3em" x="605.94" y="135">371</tspan><tspan class="line" dy="2.6em" x="605.94" y="135">0.72%</tspan></text></g></g></g><g class="trace scatter trace0ec1f1" style="stroke-miterlimit: 2; opacity: 1;"><g class="fills"/><g class="errorbars"/><g class="lines"/><g class="points"><path class="point" transform="translate(728.39,135)" d="M5.32,0A5.32,5.32 0 1,1 0,-5.32A5.32,5.32 0 0,1 5.32,0Z" style="opacity: 0.7; stroke-width: 1px; fill: rgb(125, 3, 168); fill-opacity: 1; stroke: rgb(255, 255, 255); stroke-opacity: 1;"/></g><g class="text"><g class="textpoint" transform="translate(0,-41.84821301993361)"><text x="728.39" y="135" text-anchor="middle" style="font-family: 'Open Sans', verdana, arial, sans-serif; font-size: 12px; fill: rgb(42, 63, 95); fill-opacity: 1; white-space: pre;"><tspan class="line" dy="0em" x="728.39" y="135">String</tspan><tspan class="line" dy="1.3em" x="728.39" y="135">304</tspan><tspan class="line" dy="2.6em" x="728.39" y="135">0.59%</tspan></text></g></g></g><g class="trace scatter tracee4cf4e" style="stroke-miterlimit: 2; opacity: 1;"><g class="fills"/><g class="errorbars"/><g class="lines"/><g class="points"><path class="point" transform="translate(850.84,135)" d="M3.72,0A3.72,3.72 0 1,1 0,-3.72A3.72,3.72 0 0,1 3.72,0Z" style="opacity: 0.7; stroke-width: 1px; fill: rgb(75, 3, 161); fill-opacity: 1; stroke: rgb(255, 255, 255); stroke-opacity: 1;"/></g><g class="text"><g class="textpoint" transform="translate(0,-39.85437390406361)"><text x="850.84" y="135" text-anchor="middle" style="font-family: 'Open Sans', verdana, arial, sans-serif; font-size: 12px; fill: rgb(42, 63, 95); fill-opacity: 1; white-space: pre;"><tspan class="line" dy="0em" x="850.84" y="135">Box Rc or Arc</tspan><tspan class="line" dy="1.3em" x="850.84" y="135">149</tspan><tspan class="line" dy="2.6em" x="850.84" y="135">0.29%</tspan></text></g></g></g></g></g><g class="overplot"/><path class="xlines-above crisp" d="M0,0" style="fill: none;"/><path class="ylines-above crisp" d="M0,0" style="fill: none;"/><g class="overlines-above"/><g class="xaxislayer-above"/><g class="yaxislayer-above"/><g class="overaxes-above"/></g></g><g class="polarlayer"/><g class="smithlayer"/><g class="ternarylayer"/><g class="geolayer"/><g class="funnelarealayer"/><g class="pielayer"/><g class="iciclelayer"/><g class="treemaplayer"/><g class="sunburstlayer"/><g class="glimages"/><defs id="topdefs-a6d652"><g class="clips"/></defs><g class="layer-above"><g class="imagelayer"/><g class="shapelayer"/></g><g class="infolayer"><g class="g-gtitle"/></g></svg>